# xmcd
# 
# Track frame offsets:
#     150
#     19720
#     37507
#     53277
#     66690
#     88002
#     104842
#     124342
#     137707
#     153147
#     171402
# 
# Disc length: 2438
# 
# Revision: 11
# Processed by: cddbd v1.5.2PL0 Copyright (c) Steve Scherf et al.
# Submitted via: BonkEnc v1.0.6
# 
DISCID=8f09840b
DTITLE=Toby Keith - Dream Walkin'
DYEAR=1997
DGENRE=Country
TTITLE0=We Were in Love
TTITLE1=Dream Walkin'
TTITLE2=You Don't Anymore
TTITLE3=Jacky Don Tucker (Play By the Rules, Miss All the Fun)
TTITLE4=Tired
TTITLE5=Double Wide Paradise
TTITLE6=Yet
TTITLE7=She Ran Away with a Rodeo Clown
TTITLE8=Strangers Again
TTITLE9=I'm So Happy I Can't Stop Crying (feat. Sting)
TTITLE10=I Don't Understand My Girlfriend
EXTD=
EXTT0=
EXTT1=
EXTT2=
EXTT3=
EXTT4=
EXTT5=
EXTT6=
EXTT7=
EXTT8=
EXTT9=
EXTT10=
PLAYORDER=
